<?xml version="1.0" encoding="UTF-8"?>
<svg xmlns="http://www.w3.org/2000/svg" xmlns:xlink="http://www.w3.org/1999/xlink" viewBox="0 0 50 50" width="50px" height="50px">
<g id="surface17870371">
<path style=" stroke:none;fill-rule:nonzero;fill:rgb(79.215688%,79.215688%,79.215688%);fill-opacity:1;" d="M 41.859375 21.320312 L 41.859375 19.78125 L 38.941406 19.78125 L 37.65625 19.761719 C 36.5625 19.761719 35.8125 20.480469 35.515625 21.320312 L 35.515625 19.78125 L 32.246094 19.78125 L 32.246094 29.761719 L 35.515625 29.761719 L 35.515625 24.308594 C 35.515625 23.3125 36.324219 22.507812 37.316406 22.507812 L 38.59375 22.507812 L 38.59375 29.761719 L 41.859375 29.761719 L 41.859375 24.308594 C 41.859375 23.3125 42.667969 22.507812 43.660156 22.507812 L 45.285156 22.507812 L 45.285156 19.78125 L 44.003906 19.761719 C 42.90625 19.757812 42.15625 20.480469 41.859375 21.320312 Z M 18.597656 19.992188 L 16.84375 25.757812 L 15.089844 19.992188 L 11.820312 19.992188 L 15.371094 29.96875 L 18.316406 29.96875 L 21.867188 19.992188 Z M 5.238281 19.992188 L 5.238281 19.324219 C 5.238281 18.742188 5.710938 18.269531 6.292969 18.269531 L 8.359375 18.269531 L 8.359375 15.535156 L 5.523438 15.535156 C 3.5625 15.535156 1.96875 17.125 1.96875 19.085938 L 1.96875 19.992188 L 0.0585938 19.992188 L 0.0585938 22.636719 L 1.96875 22.636719 L 1.96875 29.972656 L 5.238281 29.972656 L 5.238281 22.636719 L 8.359375 22.636719 L 8.359375 29.972656 L 11.628906 29.972656 L 11.628906 19.992188 Z M 26.398438 19.855469 L 26 19.855469 C 23.320312 19.855469 21.152344 22.027344 21.152344 24.707031 L 21.152344 25.253906 C 21.152344 27.933594 23.320312 30.101562 26 30.101562 L 26.886719 30.101562 C 28.71875 30.101562 30.289062 28.972656 30.933594 27.367188 L 28.050781 26.527344 C 28.050781 26.527344 27.703125 27.515625 26.5 27.515625 C 25.144531 27.515625 24.425781 26.769531 24.328125 25.929688 L 24.328125 25.921875 C 24.320312 25.863281 24.316406 25.800781 24.316406 25.738281 L 31.246094 25.738281 L 31.246094 24.707031 C 31.246094 22.027344 29.078125 19.855469 26.398438 19.855469 Z M 24.320312 23.8125 C 24.359375 22.917969 25.097656 22.199219 26.007812 22.199219 L 26.316406 22.199219 C 27.226562 22.199219 27.964844 22.917969 28.003906 23.8125 Z M 47.933594 26.136719 C 46.808594 26.136719 45.898438 27.046875 45.898438 28.167969 C 45.898438 29.292969 46.808594 30.203125 47.933594 30.203125 C 49.054688 30.203125 49.964844 29.292969 49.964844 28.167969 C 49.964844 27.046875 49.054688 26.136719 47.933594 26.136719 Z M 47.933594 26.136719 "/>
</g>
</svg>
